<svg id="available-icon" xmlns="http://www.w3.org/2000/svg" width="51.12" height="51.12" viewBox="0 0 51.12 51.12">
  <path id="Path_11" data-name="Path 11" d="M0,0H51.12V51.12H0Z" fill="none"/>
  <path id="Path_12" data-name="Path 12" d="M33.846,5.017H31.918V1H28.062V5.017H12.639V1H8.784V5.017H6.856A3.951,3.951,0,0,0,3,9.035V37.157a3.951,3.951,0,0,0,3.856,4.017h26.99A3.951,3.951,0,0,0,37.7,37.157V9.035A3.951,3.951,0,0,0,33.846,5.017Zm0,32.14H6.856V17.07h26.99Zm-26.99-24.1V9.035h26.99v4.017ZM17.575,34.064,29.007,22.152l-2.044-2.129-9.389,9.782-4.068-4.238L11.463,27.7Z" transform="translate(5.209 -0.82)" fill="#fff"/>
</svg>
