<svg xmlns="http://www.w3.org/2000/svg" xmlns:xlink="http://www.w3.org/1999/xlink" width="418" height="233" viewBox="0 0 418 233">
  <defs>
    <clipPath id="clip-path">
      <rect width="45" height="126" fill="none"/>
    </clipPath>
  </defs>
  <g id="bytecloud-icon" transform="translate(-601 -317)">
    <g id="server" transform="translate(-22 119)">
      <g id="server-border">
        <path id="Exclusion_3" data-name="Exclusion 3" d="M-1009.92-269h-56v-.012h0L-1160-271.248V-410.787l94.081-6.187v147.961l.144,0V-416.984l-.144.009V-417h56v148Z" transform="translate(1907.92 616)" fill="#fff" stroke="#8a8888" stroke-linejoin="round" stroke-width="2"/>
      </g>
      <g id="server-buttons" transform="translate(849 203)" clip-path="url(#clip-path)">
        <g id="server-buttons-2" data-name="server-buttons" transform="translate(-848 -206)">
          <circle id="Ellipse_7" data-name="Ellipse 7" cx="1.5" cy="1.5" r="1.5" transform="translate(850 208)" fill="#458eaa"/>
          <rect id="Rectangle_4" data-name="Rectangle 4" width="33" height="3" rx="1" transform="translate(858 208)" fill="#458eaa"/>
        </g>
        <g id="server-buttons-3" data-name="server-buttons" transform="translate(-848 -198)">
          <circle id="Ellipse_7-2" data-name="Ellipse 7" cx="1.5" cy="1.5" r="1.5" transform="translate(850 208)" fill="#458eaa"/>
          <rect id="Rectangle_4-2" data-name="Rectangle 4" width="33" height="3" rx="1" transform="translate(858 208)" fill="#458eaa"/>
        </g>
        <g id="server-buttons-4" data-name="server-buttons" transform="translate(-848 -190)">
          <circle id="Ellipse_7-3" data-name="Ellipse 7" cx="1.5" cy="1.5" r="1.5" transform="translate(850 208)" fill="#458eaa"/>
          <rect id="Rectangle_4-3" data-name="Rectangle 4" width="33" height="3" rx="1" transform="translate(858 208)" fill="#458eaa"/>
        </g>
        <g id="server-buttons-5" data-name="server-buttons" transform="translate(-848 -182)">
          <circle id="Ellipse_7-4" data-name="Ellipse 7" cx="1.5" cy="1.5" r="1.5" transform="translate(850 208)" fill="#458eaa"/>
          <rect id="Rectangle_4-4" data-name="Rectangle 4" width="33" height="3" rx="1" transform="translate(858 208)" fill="#458eaa"/>
        </g>
        <g id="server-buttons-6" data-name="server-buttons" transform="translate(-848 -174)">
          <circle id="Ellipse_7-5" data-name="Ellipse 7" cx="1.5" cy="1.5" r="1.5" transform="translate(850 208)" fill="#458eaa"/>
          <rect id="Rectangle_4-5" data-name="Rectangle 4" width="33" height="3" rx="1" transform="translate(858 208)" fill="#458eaa"/>
        </g>
        <g id="server-buttons-7" data-name="server-buttons" transform="translate(-848 -166)">
          <circle id="Ellipse_7-6" data-name="Ellipse 7" cx="1.5" cy="1.5" r="1.5" transform="translate(850 208)" fill="#458eaa"/>
          <rect id="Rectangle_4-6" data-name="Rectangle 4" width="33" height="3" rx="1" transform="translate(858 208)" fill="#458eaa"/>
        </g>
        <g id="server-buttons-8" data-name="server-buttons" transform="translate(-848 -158)">
          <circle id="Ellipse_7-7" data-name="Ellipse 7" cx="1.5" cy="1.5" r="1.5" transform="translate(850 208)" fill="#458eaa"/>
          <rect id="Rectangle_4-7" data-name="Rectangle 4" width="33" height="3" rx="1" transform="translate(858 208)" fill="#458eaa"/>
        </g>
        <g id="server-buttons-9" data-name="server-buttons" transform="translate(-848 -150)">
          <circle id="Ellipse_7-8" data-name="Ellipse 7" cx="1.5" cy="1.5" r="1.5" transform="translate(850 208)" fill="#458eaa"/>
          <rect id="Rectangle_4-8" data-name="Rectangle 4" width="33" height="3" rx="1" transform="translate(858 208)" fill="#458eaa"/>
        </g>
        <g id="server-buttons-10" data-name="server-buttons" transform="translate(-848 -142)">
          <circle id="Ellipse_7-9" data-name="Ellipse 7" cx="1.5" cy="1.5" r="1.5" transform="translate(850 208)" fill="#458eaa"/>
          <rect id="Rectangle_4-9" data-name="Rectangle 4" width="33" height="3" rx="1" transform="translate(858 208)" fill="#458eaa"/>
        </g>
        <g id="server-buttons-11" data-name="server-buttons" transform="translate(-848 -134)">
          <circle id="Ellipse_7-10" data-name="Ellipse 7" cx="1.5" cy="1.5" r="1.5" transform="translate(850 208)" fill="#458eaa"/>
          <rect id="Rectangle_4-10" data-name="Rectangle 4" width="33" height="3" rx="1" transform="translate(858 208)" fill="#458eaa"/>
        </g>
        <g id="server-buttons-12" data-name="server-buttons" transform="translate(-848 -126)">
          <circle id="Ellipse_7-11" data-name="Ellipse 7" cx="1.5" cy="1.5" r="1.5" transform="translate(850 208)" fill="#458eaa"/>
          <rect id="Rectangle_4-11" data-name="Rectangle 4" width="33" height="3" rx="1" transform="translate(858 208)" fill="#458eaa"/>
        </g>
        <g id="server-buttons-13" data-name="server-buttons" transform="translate(-848 -118)">
          <circle id="Ellipse_7-12" data-name="Ellipse 7" cx="1.5" cy="1.5" r="1.5" transform="translate(850 208)" fill="#458eaa"/>
          <rect id="Rectangle_4-12" data-name="Rectangle 4" width="33" height="3" rx="1" transform="translate(858 208)" fill="#458eaa"/>
        </g>
        <g id="server-buttons-14" data-name="server-buttons" transform="translate(-848 -110)">
          <circle id="Ellipse_7-13" data-name="Ellipse 7" cx="1.5" cy="1.5" r="1.5" transform="translate(850 208)" fill="#458eaa"/>
          <rect id="Rectangle_4-13" data-name="Rectangle 4" width="33" height="3" rx="1" transform="translate(858 208)" fill="#458eaa"/>
        </g>
        <g id="server-buttons-15" data-name="server-buttons" transform="translate(-848 -102)">
          <circle id="Ellipse_7-14" data-name="Ellipse 7" cx="1.5" cy="1.5" r="1.5" transform="translate(850 208)" fill="#458eaa"/>
          <rect id="Rectangle_4-14" data-name="Rectangle 4" width="33" height="3" rx="1" transform="translate(858 208)" fill="#458eaa"/>
        </g>
        <g id="server-buttons-16" data-name="server-buttons" transform="translate(-848 -94)">
          <circle id="Ellipse_7-15" data-name="Ellipse 7" cx="1.5" cy="1.5" r="1.5" transform="translate(850 208)" fill="#458eaa"/>
          <rect id="Rectangle_4-15" data-name="Rectangle 4" width="33" height="3" rx="1" transform="translate(858 208)" fill="#458eaa"/>
        </g>
        <g id="server-buttons-17" data-name="server-buttons" transform="translate(-848 -86)">
          <circle id="Ellipse_7-16" data-name="Ellipse 7" cx="1.5" cy="1.5" r="1.5" transform="translate(850 208)" fill="#458eaa"/>
          <rect id="Rectangle_4-16" data-name="Rectangle 4" width="33" height="3" rx="1" transform="translate(858 208)" fill="#458eaa"/>
        </g>
      </g>
    </g>
    <g id="server-2" data-name="server" transform="translate(3 157)">
      <g id="server-border-2" data-name="server-border">
        <path id="Exclusion_3-2" data-name="Exclusion 3" d="M-1009.92-269h-56v-.012h0L-1160-271.248V-410.787l94.081-6.187v147.961l.144,0V-416.984l-.144.009V-417h56v148Z" transform="translate(1907.92 616)" fill="#fff" stroke="#8a8888" stroke-linejoin="round" stroke-width="2"/>
      </g>
      <g id="server-buttons-18" data-name="server-buttons" transform="translate(849 203)" clip-path="url(#clip-path)">
        <g id="server-buttons-19" data-name="server-buttons" transform="translate(-848 -206)">
          <path id="Path_2" data-name="Path 2" d="M1.5,0A1.5,1.5,0,1,1,0,1.5,1.5,1.5,0,0,1,1.5,0Z" transform="translate(850 208)" fill="#458eaa"/>
          <rect id="Rectangle_4-17" data-name="Rectangle 4" width="33" height="3" rx="1" transform="translate(858 208)" fill="#458eaa"/>
        </g>
        <g id="server-buttons-20" data-name="server-buttons" transform="translate(-848 -198)">
          <path id="Path_2-2" data-name="Path 2" d="M1.5,0A1.5,1.5,0,1,1,0,1.5,1.5,1.5,0,0,1,1.5,0Z" transform="translate(850 208)" fill="#458eaa"/>
          <rect id="Rectangle_4-18" data-name="Rectangle 4" width="33" height="3" rx="1" transform="translate(858 208)" fill="#458eaa"/>
        </g>
        <g id="server-buttons-21" data-name="server-buttons" transform="translate(-848 -190)">
          <path id="Path_2-3" data-name="Path 2" d="M1.5,0A1.5,1.5,0,1,1,0,1.5,1.5,1.5,0,0,1,1.5,0Z" transform="translate(850 208)" fill="#458eaa"/>
          <rect id="Rectangle_4-19" data-name="Rectangle 4" width="33" height="3" rx="1" transform="translate(858 208)" fill="#458eaa"/>
        </g>
        <g id="server-buttons-22" data-name="server-buttons" transform="translate(-848 -182)">
          <path id="Path_2-4" data-name="Path 2" d="M1.5,0A1.5,1.5,0,1,1,0,1.5,1.5,1.5,0,0,1,1.5,0Z" transform="translate(850 208)" fill="#458eaa"/>
          <rect id="Rectangle_4-20" data-name="Rectangle 4" width="33" height="3" rx="1" transform="translate(858 208)" fill="#458eaa"/>
        </g>
        <g id="server-buttons-23" data-name="server-buttons" transform="translate(-848 -174)">
          <path id="Path_2-5" data-name="Path 2" d="M1.5,0A1.5,1.5,0,1,1,0,1.5,1.5,1.5,0,0,1,1.5,0Z" transform="translate(850 208)" fill="#458eaa"/>
          <rect id="Rectangle_4-21" data-name="Rectangle 4" width="33" height="3" rx="1" transform="translate(858 208)" fill="#458eaa"/>
        </g>
        <g id="server-buttons-24" data-name="server-buttons" transform="translate(-848 -166)">
          <path id="Path_2-6" data-name="Path 2" d="M1.5,0A1.5,1.5,0,1,1,0,1.5,1.5,1.5,0,0,1,1.5,0Z" transform="translate(850 208)" fill="#458eaa"/>
          <rect id="Rectangle_4-22" data-name="Rectangle 4" width="33" height="3" rx="1" transform="translate(858 208)" fill="#458eaa"/>
        </g>
        <g id="server-buttons-25" data-name="server-buttons" transform="translate(-848 -158)">
          <path id="Path_2-7" data-name="Path 2" d="M1.5,0A1.5,1.5,0,1,1,0,1.5,1.5,1.5,0,0,1,1.5,0Z" transform="translate(850 208)" fill="#458eaa"/>
          <rect id="Rectangle_4-23" data-name="Rectangle 4" width="33" height="3" rx="1" transform="translate(858 208)" fill="#458eaa"/>
        </g>
        <g id="server-buttons-26" data-name="server-buttons" transform="translate(-848 -150)">
          <path id="Path_2-8" data-name="Path 2" d="M1.5,0A1.5,1.5,0,1,1,0,1.5,1.5,1.5,0,0,1,1.5,0Z" transform="translate(850 208)" fill="#458eaa"/>
          <rect id="Rectangle_4-24" data-name="Rectangle 4" width="33" height="3" rx="1" transform="translate(858 208)" fill="#458eaa"/>
        </g>
        <g id="server-buttons-27" data-name="server-buttons" transform="translate(-848 -142)">
          <path id="Path_2-9" data-name="Path 2" d="M1.5,0A1.5,1.5,0,1,1,0,1.5,1.5,1.5,0,0,1,1.5,0Z" transform="translate(850 208)" fill="#458eaa"/>
          <rect id="Rectangle_4-25" data-name="Rectangle 4" width="33" height="3" rx="1" transform="translate(858 208)" fill="#458eaa"/>
        </g>
        <g id="server-buttons-28" data-name="server-buttons" transform="translate(-848 -134)">
          <path id="Path_2-10" data-name="Path 2" d="M1.5,0A1.5,1.5,0,1,1,0,1.5,1.5,1.5,0,0,1,1.5,0Z" transform="translate(850 208)" fill="#458eaa"/>
          <rect id="Rectangle_4-26" data-name="Rectangle 4" width="33" height="3" rx="1" transform="translate(858 208)" fill="#458eaa"/>
        </g>
        <g id="server-buttons-29" data-name="server-buttons" transform="translate(-848 -126)">
          <path id="Path_2-11" data-name="Path 2" d="M1.5,0A1.5,1.5,0,1,1,0,1.5,1.5,1.5,0,0,1,1.5,0Z" transform="translate(850 208)" fill="#458eaa"/>
          <rect id="Rectangle_4-27" data-name="Rectangle 4" width="33" height="3" rx="1" transform="translate(858 208)" fill="#458eaa"/>
        </g>
        <g id="server-buttons-30" data-name="server-buttons" transform="translate(-848 -118)">
          <path id="Path_2-12" data-name="Path 2" d="M1.5,0A1.5,1.5,0,1,1,0,1.5,1.5,1.5,0,0,1,1.5,0Z" transform="translate(850 208)" fill="#458eaa"/>
          <rect id="Rectangle_4-28" data-name="Rectangle 4" width="33" height="3" rx="1" transform="translate(858 208)" fill="#458eaa"/>
        </g>
        <g id="server-buttons-31" data-name="server-buttons" transform="translate(-848 -110)">
          <path id="Path_2-13" data-name="Path 2" d="M1.5,0A1.5,1.5,0,1,1,0,1.5,1.5,1.5,0,0,1,1.5,0Z" transform="translate(850 208)" fill="#458eaa"/>
          <rect id="Rectangle_4-29" data-name="Rectangle 4" width="33" height="3" rx="1" transform="translate(858 208)" fill="#458eaa"/>
        </g>
        <g id="server-buttons-32" data-name="server-buttons" transform="translate(-848 -102)">
          <path id="Path_2-14" data-name="Path 2" d="M1.5,0A1.5,1.5,0,1,1,0,1.5,1.5,1.5,0,0,1,1.5,0Z" transform="translate(850 208)" fill="#458eaa"/>
          <rect id="Rectangle_4-30" data-name="Rectangle 4" width="33" height="3" rx="1" transform="translate(858 208)" fill="#458eaa"/>
        </g>
        <g id="server-buttons-33" data-name="server-buttons" transform="translate(-848 -94)">
          <path id="Path_2-15" data-name="Path 2" d="M1.5,0A1.5,1.5,0,1,1,0,1.5,1.5,1.5,0,0,1,1.5,0Z" transform="translate(850 208)" fill="#458eaa"/>
          <rect id="Rectangle_4-31" data-name="Rectangle 4" width="33" height="3" rx="1" transform="translate(858 208)" fill="#458eaa"/>
        </g>
        <g id="server-buttons-34" data-name="server-buttons" transform="translate(-848 -86)">
          <path id="Path_2-16" data-name="Path 2" d="M1.5,0A1.5,1.5,0,1,1,0,1.5,1.5,1.5,0,0,1,1.5,0Z" transform="translate(850 208)" fill="#458eaa"/>
          <rect id="Rectangle_4-32" data-name="Rectangle 4" width="33" height="3" rx="1" transform="translate(858 208)" fill="#458eaa"/>
        </g>
      </g>
    </g>
    <g id="cloud2" transform="translate(1019 543.001) rotate(180)" fill="#f8f8f8">
      <path d="M 161.1335144042969 145.0011901855469 C 153.2044677734375 145.0011901855469 145.3179168701172 144.1455078125 137.69287109375 142.4579162597656 C 130.2879638671875 140.8191070556641 123.0954666137695 138.3893280029297 116.3151016235352 135.2361450195313 C 109.6563339233398 132.1395111083984 103.3856506347656 128.3417358398438 97.67719268798828 123.9482879638672 C 91.99801635742188 119.5772857666016 86.87724304199219 114.6182861328125 82.45706176757813 109.2090606689453 L 82.17278289794922 108.8611907958984 L 81.72392272949219 108.8426971435547 C 70.65110778808594 108.3856506347656 59.97956085205078 106.498420715332 50.00578689575195 103.2334213256836 C 40.34369659423828 100.0703735351563 31.70896911621094 95.74287414550781 24.34151458740234 90.37110137939453 C 9.28951358795166 79.39633178710938 1.000013709068298 65.06569671630859 1.000013709068298 50.01910400390625 C 1.000013709068298 45.01728439331055 1.917740941047668 40.04824066162109 3.727649927139282 35.24991989135742 C 5.488968372344971 30.58114814758301 8.097468376159668 26.06260299682617 11.48078632354736 21.81992149353027 C 14.8173770904541 17.6361026763916 18.90019607543945 13.72778415679932 23.61574172973633 10.20360279083252 C 28.27703475952148 6.720058441162109 33.53987121582031 3.624215841293335 39.26073455810547 1.000284552574158 L 345.3148803710938 1.000284552574158 C 350.3201599121094 6.312882900238037 354.1941833496094 11.99416351318359 356.8328857421875 17.89264869689941 C 359.5976867675781 24.07319450378418 360.9995727539063 30.48542022705078 360.9995727539063 36.95128631591797 C 360.9995727539063 41.79705810546875 360.2079772949219 46.64101028442383 358.6466979980469 51.34860229492188 C 357.1217956542969 55.94669342041016 354.8441467285156 60.47269439697266 351.8771057128906 64.80087280273438 C 348.9552001953125 69.06337738037109 345.3357543945313 73.17714691162109 341.1192321777344 77.02801513671875 C 336.9330444335938 80.85137176513672 332.1226196289063 84.44837188720703 326.8215637207031 87.71914672851563 C 321.5124206542969 90.99496459960938 315.6685180664063 93.96983337402344 309.4520263671875 96.56119537353516 C 303.1703186035156 99.17964935302734 296.4532470703125 101.4291000366211 289.4872741699219 103.2470550537109 C 274.9835510253906 107.0321502685547 259.5742492675781 108.9513320922852 243.6872863769531 108.9513320922852 C 242.6529693603516 108.9513320922852 241.5913848876953 108.9426498413086 240.5320587158203 108.9255142211914 L 240.0485992431641 108.9176940917969 L 239.7422485351563 109.2917404174805 C 235.3211059570313 114.689697265625 230.2015075683594 119.6378326416016 224.5255584716797 123.9987411499023 C 218.8202362060547 128.3822784423828 212.5543365478516 132.1712341308594 205.9019622802734 135.2602844238281 C 199.1282348632813 138.4058227539063 191.9432373046875 140.8296508789063 184.5465087890625 142.4644165039063 C 176.9302368164063 144.1476898193359 169.0529632568359 145.0011901855469 161.1335144042969 145.0011901855469 Z" stroke="none"/>
      <path d="M 39.479736328125 2.000259399414063 C 33.89932250976563 4.575302124023438 28.765380859375 7.603469848632813 24.21438598632813 11.00465393066406 C 19.56723022460938 14.47764587402344 15.54605102539063 18.32625579833984 12.2625732421875 22.44340515136719 C 8.944488525390625 26.60435485839844 6.3876953125 31.03185272216797 4.663330078125 35.6029052734375 C 2.896087646484375 40.28790283203125 2 45.13820648193359 2 50.01910400390625 C 2 64.73780059814453 10.14358520507813 78.78150177001953 24.93069458007813 89.56310272216797 C 32.21322631835938 94.87300109863281 40.75442504882813 99.15260314941406 50.31689453125 102.2830505371094 C 60.20343017578125 105.5194549560547 70.78414916992188 107.3903045654297 81.76519775390625 107.8435516357422 L 82.662841796875 107.8805999755859 L 83.23138427734375 108.576301574707 C 87.60324096679688 113.9263534545898 92.66873168945313 118.8316497802734 98.28713989257813 123.1557998657227 C 103.9373779296875 127.5045013427734 110.1446838378906 131.2638549804688 116.7367401123047 134.329345703125 C 123.4512329101563 137.4519500732422 130.5745849609375 139.8583068847656 137.9089813232422 141.4815521240234 C 145.4632873535156 143.1534576416016 153.2771301269531 144.0012054443359 161.1335296630859 144.0012054443359 C 168.9805297851563 144.0012054443359 176.7852325439453 143.1556549072266 184.3307342529297 141.4880523681641 C 191.65673828125 139.8688507080078 198.7726287841797 137.4683532714844 205.4808807373047 134.3533020019531 C 212.0664367675781 131.2952575683594 218.2689819335938 127.5447006225586 223.9163360595703 123.2057495117188 C 229.53173828125 118.8913040161133 234.5960845947266 113.9967498779297 238.9686279296875 108.6581039428711 L 239.5813293457031 107.9100036621094 L 240.5481872558594 107.9255981445313 C 241.6048889160156 107.9427032470703 242.6610412597656 107.9513549804688 243.6872863769531 107.9513549804688 C 259.4890441894531 107.9513549804688 274.8134460449219 106.0430526733398 289.2347412109375 102.2794494628906 C 296.1556396484375 100.4732513427734 302.8282775878906 98.23880004882813 309.0672912597656 95.63815307617188 C 315.2351379394531 93.06704711914063 321.0318908691406 90.11640167236328 326.2964477539063 86.86810302734375 C 331.5445251464844 83.6300048828125 336.3047485351563 80.07089996337891 340.44482421875 76.28964996337891 C 344.6048889160156 72.49030303955078 348.1737976074219 68.43470001220703 351.0523376464844 64.23550415039063 C 353.9663391113281 59.98455047607422 356.2020874023438 55.54285430908203 357.6975402832031 51.03380584716797 C 359.2250366210938 46.42790222167969 359.9995727539063 41.68984985351563 359.9995727539063 36.95125579833984 C 359.9995727539063 30.62720489501953 358.6270446777344 24.35235595703125 355.9200439453125 18.30094909667969 C 353.3789978027344 12.62081909179688 349.6673583984375 7.140518188476563 344.8813781738281 2.000259399414063 L 39.479736328125 2.000259399414063 M 345.74462890625 0 L 345.7449340820313 0.0002593994140625 C 350.9713745117188 5.484298706054688 355.0089721679688 11.36676025390625 357.7456970214844 17.4842529296875 C 360.5683288574219 23.79420471191406 361.9995727539063 30.34380340576172 361.9995727539063 36.95125579833984 C 361.9995727539063 41.90425109863281 361.1908264160156 46.85410308837891 359.5958251953125 51.66340637207031 C 358.0413818359375 56.35045623779297 355.721923828125 60.96075439453125 352.7019348144531 65.36630249023438 C 349.7367858886719 69.69185638427734 346.0666809082031 73.86385345458984 341.7935791015625 77.76644897460938 C 337.5613403320313 81.63185119628906 332.7006225585938 85.26675415039063 327.3466491699219 88.57020568847656 C 321.9927368164063 91.87360382080078 316.1015930175781 94.87270355224609 309.8367919921875 97.48420715332031 C 303.5120239257813 100.12060546875 296.7503967285156 102.3850555419922 289.7397766113281 104.2146530151367 C 275.1536254882813 108.0212554931641 259.6593017578125 109.9513549804688 243.6872863769531 109.9513549804688 C 242.6566467285156 109.9513549804688 241.5893249511719 109.9427032470703 240.5158843994141 109.9253540039063 C 236.0464782714844 115.3823013305664 230.87158203125 120.3840484619141 225.1348419189453 124.7917022705078 C 219.3712921142578 129.2199554443359 213.0421295166016 133.0473022460938 206.3231811523438 136.1672515869141 C 199.4836883544922 139.3433074951172 192.2295379638672 141.7904968261719 184.7623291015625 143.4409027099609 C 177.0752868652344 145.1398010253906 169.1254425048828 146.0012054443359 161.1335296630859 146.0012054443359 C 153.1319427490234 146.0012054443359 145.1726837158203 145.1375579833984 137.4767913818359 143.4342956542969 C 130.0012359619141 141.7798004150391 122.7394866943359 139.32666015625 115.8933868408203 136.1428527832031 C 109.1680908203125 133.0153503417969 102.8340759277344 129.1791534423828 97.06729125976563 124.7407531738281 C 91.32772827148438 120.3233032226563 86.15142822265625 115.3104553222656 81.68267822265625 109.8418579101563 C 70.51812744140625 109.3810043334961 59.75579833984375 107.4773559570313 49.69467163085938 104.1838073730469 C 39.93283081054688 100.9880981445313 31.20452880859375 96.61270141601563 23.75238037109375 91.17915344238281 C 8.4354248046875 80.01119995117188 0 65.39360046386719 0 50.01910400390625 C 0 44.89615631103516 0.93939208984375 39.808349609375 2.792022705078125 34.89700317382813 C 4.590179443359375 30.13040161132813 7.250396728515625 25.52090454101563 10.69888305664063 21.19644927978516 C 14.08868408203125 16.94595336914063 18.23309326171875 12.9779052734375 23.01708984375 9.402603149414063 C 27.78900146484375 5.836349487304688 33.1807861328125 2.673004150390625 39.04287719726563 0.0002593994140625 L 345.7449340820313 0.0002593994140625 L 345.74462890625 0 Z" stroke="none" fill="#458eaa"/>
    </g>
    <g id="server-3" data-name="server" transform="translate(-45 146)">
      <g id="server-border-3" data-name="server-border">
        <path id="Exclusion_3-3" data-name="Exclusion 3" d="M-1009.92-269h-56v-.012h0L-1160-271.248V-410.787l94.081-6.187v147.961l.144,0V-416.984l-.144.009V-417h56v148Z" transform="translate(1907.92 616)" fill="#fff" stroke="#8a8888" stroke-linejoin="round" stroke-width="2"/>
      </g>
      <g id="server-buttons-35" data-name="server-buttons" transform="translate(849 203)" clip-path="url(#clip-path)">
        <g id="server-buttons-36" data-name="server-buttons" transform="translate(-848 -206)">
          <circle id="Ellipse_7-17" data-name="Ellipse 7" cx="1.5" cy="1.5" r="1.5" transform="translate(850 208)" fill="#458eaa"/>
          <rect id="Rectangle_4-33" data-name="Rectangle 4" width="33" height="3" rx="1" transform="translate(858 208)" fill="#458eaa"/>
        </g>
        <g id="server-buttons-37" data-name="server-buttons" transform="translate(-848 -198)">
          <circle id="Ellipse_7-18" data-name="Ellipse 7" cx="1.5" cy="1.5" r="1.5" transform="translate(850 208)" fill="#458eaa"/>
          <rect id="Rectangle_4-34" data-name="Rectangle 4" width="33" height="3" rx="1" transform="translate(858 208)" fill="#458eaa"/>
        </g>
        <g id="server-buttons-38" data-name="server-buttons" transform="translate(-848 -190)">
          <circle id="Ellipse_7-19" data-name="Ellipse 7" cx="1.5" cy="1.5" r="1.5" transform="translate(850 208)" fill="#458eaa"/>
          <rect id="Rectangle_4-35" data-name="Rectangle 4" width="33" height="3" rx="1" transform="translate(858 208)" fill="#458eaa"/>
        </g>
        <g id="server-buttons-39" data-name="server-buttons" transform="translate(-848 -182)">
          <circle id="Ellipse_7-20" data-name="Ellipse 7" cx="1.5" cy="1.5" r="1.5" transform="translate(850 208)" fill="#458eaa"/>
          <rect id="Rectangle_4-36" data-name="Rectangle 4" width="33" height="3" rx="1" transform="translate(858 208)" fill="#458eaa"/>
        </g>
        <g id="server-buttons-40" data-name="server-buttons" transform="translate(-848 -174)">
          <circle id="Ellipse_7-21" data-name="Ellipse 7" cx="1.5" cy="1.5" r="1.5" transform="translate(850 208)" fill="#458eaa"/>
          <rect id="Rectangle_4-37" data-name="Rectangle 4" width="33" height="3" rx="1" transform="translate(858 208)" fill="#458eaa"/>
        </g>
        <g id="server-buttons-41" data-name="server-buttons" transform="translate(-848 -166)">
          <circle id="Ellipse_7-22" data-name="Ellipse 7" cx="1.5" cy="1.5" r="1.5" transform="translate(850 208)" fill="#458eaa"/>
          <rect id="Rectangle_4-38" data-name="Rectangle 4" width="33" height="3" rx="1" transform="translate(858 208)" fill="#458eaa"/>
        </g>
        <g id="server-buttons-42" data-name="server-buttons" transform="translate(-848 -158)">
          <circle id="Ellipse_7-23" data-name="Ellipse 7" cx="1.5" cy="1.5" r="1.5" transform="translate(850 208)" fill="#458eaa"/>
          <rect id="Rectangle_4-39" data-name="Rectangle 4" width="33" height="3" rx="1" transform="translate(858 208)" fill="#458eaa"/>
        </g>
        <g id="server-buttons-43" data-name="server-buttons" transform="translate(-848 -150)">
          <circle id="Ellipse_7-24" data-name="Ellipse 7" cx="1.5" cy="1.5" r="1.5" transform="translate(850 208)" fill="#458eaa"/>
          <rect id="Rectangle_4-40" data-name="Rectangle 4" width="33" height="3" rx="1" transform="translate(858 208)" fill="#458eaa"/>
        </g>
        <g id="server-buttons-44" data-name="server-buttons" transform="translate(-848 -142)">
          <circle id="Ellipse_7-25" data-name="Ellipse 7" cx="1.5" cy="1.5" r="1.5" transform="translate(850 208)" fill="#458eaa"/>
          <rect id="Rectangle_4-41" data-name="Rectangle 4" width="33" height="3" rx="1" transform="translate(858 208)" fill="#458eaa"/>
        </g>
        <g id="server-buttons-45" data-name="server-buttons" transform="translate(-848 -134)">
          <circle id="Ellipse_7-26" data-name="Ellipse 7" cx="1.5" cy="1.5" r="1.5" transform="translate(850 208)" fill="#458eaa"/>
          <rect id="Rectangle_4-42" data-name="Rectangle 4" width="33" height="3" rx="1" transform="translate(858 208)" fill="#458eaa"/>
        </g>
        <g id="server-buttons-46" data-name="server-buttons" transform="translate(-848 -126)">
          <circle id="Ellipse_7-27" data-name="Ellipse 7" cx="1.5" cy="1.5" r="1.5" transform="translate(850 208)" fill="#458eaa"/>
          <rect id="Rectangle_4-43" data-name="Rectangle 4" width="33" height="3" rx="1" transform="translate(858 208)" fill="#458eaa"/>
        </g>
        <g id="server-buttons-47" data-name="server-buttons" transform="translate(-848 -118)">
          <circle id="Ellipse_7-28" data-name="Ellipse 7" cx="1.5" cy="1.5" r="1.5" transform="translate(850 208)" fill="#458eaa"/>
          <rect id="Rectangle_4-44" data-name="Rectangle 4" width="33" height="3" rx="1" transform="translate(858 208)" fill="#458eaa"/>
        </g>
        <g id="server-buttons-48" data-name="server-buttons" transform="translate(-848 -110)">
          <circle id="Ellipse_7-29" data-name="Ellipse 7" cx="1.5" cy="1.5" r="1.5" transform="translate(850 208)" fill="#458eaa"/>
          <rect id="Rectangle_4-45" data-name="Rectangle 4" width="33" height="3" rx="1" transform="translate(858 208)" fill="#458eaa"/>
        </g>
        <g id="server-buttons-49" data-name="server-buttons" transform="translate(-848 -102)">
          <circle id="Ellipse_7-30" data-name="Ellipse 7" cx="1.5" cy="1.5" r="1.5" transform="translate(850 208)" fill="#458eaa"/>
          <rect id="Rectangle_4-46" data-name="Rectangle 4" width="33" height="3" rx="1" transform="translate(858 208)" fill="#458eaa"/>
        </g>
        <g id="server-buttons-50" data-name="server-buttons" transform="translate(-848 -94)">
          <circle id="Ellipse_7-31" data-name="Ellipse 7" cx="1.5" cy="1.5" r="1.5" transform="translate(850 208)" fill="#458eaa"/>
          <rect id="Rectangle_4-47" data-name="Rectangle 4" width="33" height="3" rx="1" transform="translate(858 208)" fill="#458eaa"/>
        </g>
        <g id="server-buttons-51" data-name="server-buttons" transform="translate(-848 -86)">
          <circle id="Ellipse_7-32" data-name="Ellipse 7" cx="1.5" cy="1.5" r="1.5" transform="translate(850 208)" fill="#458eaa"/>
          <rect id="Rectangle_4-48" data-name="Rectangle 4" width="33" height="3" rx="1" transform="translate(858 208)" fill="#458eaa"/>
        </g>
      </g>
    </g>
    <g id="cloud1" transform="translate(1801 706)" fill="#f9f9f9">
      <path d="M -868.05126953125 -156.9993286132813 L -1162.252319335938 -156.9993286132813 C -1167.747680664063 -159.4780120849609 -1172.802978515625 -162.402099609375 -1177.280639648438 -165.6923370361328 C -1181.810791015625 -169.0210571289063 -1185.732788085938 -172.7125091552734 -1188.93798828125 -176.6640625 C -1192.186645507813 -180.6696014404297 -1194.691284179688 -184.9351501464844 -1196.382080078125 -189.3421478271484 C -1198.119018554688 -193.8697357177734 -1198.999755859375 -198.5582427978516 -1198.999755859375 -203.2774200439453 C -1198.999755859375 -217.4784240722656 -1191.038818359375 -231.0064239501953 -1176.583374023438 -241.3694152832031 C -1169.503662109375 -246.4447784423828 -1161.205932617188 -250.5335998535156 -1151.920532226563 -253.5222930908203 C -1142.334716796875 -256.6076965332031 -1132.078125 -258.3911437988281 -1121.435546875 -258.8230895996094 L -1120.9912109375 -258.8411560058594 L -1120.70703125 -259.18310546875 C -1116.4599609375 -264.2932434082031 -1111.539672851563 -268.9780578613281 -1106.0830078125 -273.1073913574219 C -1100.59716796875 -277.2586975097656 -1094.571166992188 -280.8470153808594 -1088.172485351563 -283.7726440429688 C -1081.656616210938 -286.7521362304688 -1074.744140625 -289.0481567382813 -1067.627075195313 -290.596923828125 C -1060.298461914063 -292.1916809082031 -1052.718505859375 -293.0002746582031 -1045.097900390625 -293.0002746582031 C -1037.486206054688 -293.0002746582031 -1029.915283203125 -292.1937255859375 -1022.595336914063 -290.6030578613281 C -1015.486755371094 -289.0583190917969 -1008.581481933594 -286.7679138183594 -1002.0712890625 -283.7955017089844 C -995.6785278320313 -280.8768310546875 -989.6572265625 -277.2968444824219 -984.174560546875 -273.1549987792969 C -978.7207641601563 -269.0350646972656 -973.8016967773438 -264.3604736328125 -969.553955078125 -259.2611389160156 L -969.247802734375 -258.8937072753906 L -968.7696533203125 -258.9013366699219 C -967.7535400390625 -258.9175109863281 -966.733154296875 -258.9257507324219 -965.7368774414063 -258.9257507324219 C -950.4661865234375 -258.9257507324219 -935.65478515625 -257.1119689941406 -921.7139282226563 -253.5347900390625 C -915.0187377929688 -251.8167877197266 -908.5625610351563 -249.6910095214844 -902.5248413085938 -247.2164154052734 C -896.5505981445313 -244.7678375244141 -890.9341430664063 -241.9566955566406 -885.83154296875 -238.8612365722656 C -880.7376708984375 -235.7709197998047 -876.1152954101563 -232.3725128173828 -872.0928344726563 -228.7603302001953 C -868.0419311523438 -225.1226959228516 -864.5650024414063 -221.2371978759766 -861.758544921875 -217.2117919921875 C -858.9094848632813 -213.1253356933594 -856.7224731445313 -208.8525085449219 -855.2584838867188 -204.5120544433594 C -853.7599487304688 -200.0694274902344 -853.0001831054688 -195.498291015625 -853.0001831054688 -190.9256439208984 C -853.0001831054688 -184.8241424560547 -854.3458251953125 -178.7726898193359 -856.999755859375 -172.9394683837891 C -859.5318603515625 -167.3742828369141 -863.2489624023438 -162.0132598876953 -868.05126953125 -156.9993286132813 Z" stroke="none"/>
      <path d="M -868.47998046875 -157.9993286132813 C -863.8977661132813 -162.8426513671875 -860.3435668945313 -168.0048370361328 -857.9099731445313 -173.3535614013672 C -855.3156127929688 -179.0558776855469 -854.0001831054688 -184.9679718017578 -854.0001831054688 -190.9256439208984 C -854.0001831054688 -195.3893737792969 -854.7423095703125 -199.8529663085938 -856.2059936523438 -204.1924285888672 C -857.6397705078125 -208.4431915283203 -859.783935546875 -212.631103515625 -862.578857421875 -216.6398773193359 C -865.3414306640625 -220.6023712158203 -868.7672119140625 -224.4299163818359 -872.7609252929688 -228.0163269042969 C -876.7372436523438 -231.5870513916016 -881.3093872070313 -234.9481506347656 -886.3501586914063 -238.0062408447266 C -891.4083862304688 -241.0747833251953 -896.9779663085938 -243.8622436523438 -902.9041137695313 -246.2911529541016 C -908.8994750976563 -248.7483367919922 -915.3115844726563 -250.8595581054688 -921.9625244140625 -252.5661926269531 C -935.8221435546875 -256.1225280761719 -950.5499877929688 -257.9257507324219 -965.7368774414063 -257.9257507324219 C -966.7278442382813 -257.9257507324219 -967.7428588867188 -257.9175720214844 -968.753662109375 -257.9014587402344 L -969.7100830078125 -257.8861999511719 L -970.322265625 -258.6211547851563 C -974.5211181640625 -263.6617431640625 -979.384521484375 -268.283203125 -984.77734375 -272.3571166992188 C -990.2018432617188 -276.4550170898438 -996.16015625 -279.9974365234375 -1002.486633300781 -282.8858642578125 C -1008.931884765625 -285.82861328125 -1015.768859863281 -288.0962829589844 -1022.807678222656 -289.6258850097656 C -1030.057983398438 -291.201416015625 -1037.557495117188 -292.0002746582031 -1045.097900390625 -292.0002746582031 C -1052.647094726563 -292.0002746582031 -1060.155517578125 -291.1993713378906 -1067.414428710938 -289.6197814941406 C -1074.461669921875 -288.0862426757813 -1081.305786132813 -285.8130187988281 -1087.756713867188 -282.8631896972656 C -1094.088989257813 -279.9679260253906 -1100.051879882813 -276.4172973632813 -1105.479614257813 -272.3099670410156 C -1110.875366210938 -268.2268371582031 -1115.73974609375 -263.5952453613281 -1119.93798828125 -258.5439147949219 L -1120.506469726563 -257.8600158691406 L -1121.39501953125 -257.8239135742188 C -1131.947265625 -257.3955993652344 -1142.114379882813 -255.6280517578125 -1151.614135742188 -252.5703735351563 C -1160.800659179688 -249.6135559082031 -1169.005493164063 -245.5715637207031 -1176.000732421875 -240.5567016601563 C -1190.18701171875 -230.3865966796875 -1197.999755859375 -217.1472473144531 -1197.999755859375 -203.2774200439453 C -1197.999755859375 -198.68115234375 -1197.141357421875 -194.1131896972656 -1195.448364257813 -189.7003784179688 C -1193.79541015625 -185.3917846679688 -1191.343627929688 -181.2176513671875 -1188.161376953125 -177.2939605712891 C -1185.009887695313 -173.4086456298828 -1181.14990234375 -169.7764282226563 -1176.688598632813 -166.4981536865234 C -1172.320434570313 -163.2884063720703 -1167.392456054688 -160.4301910400391 -1162.03662109375 -157.9993286132813 L -868.47998046875 -157.9993286132813 M -867.6264038085938 -155.9990997314453 L -867.626220703125 -155.9993286132813 L -1162.466796875 -155.9993286132813 C -1168.102294921875 -158.5256500244141 -1173.285400390625 -161.5156555175781 -1177.872802734375 -164.886474609375 C -1182.471801757813 -168.265869140625 -1186.455932617188 -172.0165100097656 -1189.714599609375 -176.0341033935547 C -1193.02978515625 -180.1215972900391 -1195.587158203125 -184.4785614013672 -1197.315673828125 -188.9839630126953 C -1199.0966796875 -193.6262359619141 -1199.999755859375 -198.4351959228516 -1199.999755859375 -203.2774200439453 C -1199.999755859375 -217.8095092773438 -1191.890625 -231.6261444091797 -1177.166015625 -242.1821441650391 C -1170.001953125 -247.3180084228516 -1161.611328125 -251.4536437988281 -1152.226928710938 -254.4741973876953 C -1142.554931640625 -257.5873413085938 -1132.208740234375 -259.3866577148438 -1121.47607421875 -259.8222961425781 C -1117.18017578125 -264.9911804199219 -1112.2041015625 -269.7293701171875 -1106.6865234375 -273.90478515625 C -1101.142578125 -278.1000061035156 -1095.0537109375 -281.7259826660156 -1088.58837890625 -284.6820983886719 C -1082.007080078125 -287.6914672851563 -1075.026123046875 -290.0101928710938 -1067.839721679688 -291.5740661621094 C -1060.44140625 -293.1839599609375 -1052.7900390625 -294.0002746582031 -1045.097900390625 -294.0002746582031 C -1037.4150390625 -294.0002746582031 -1029.772705078125 -293.1860961914063 -1022.382934570313 -291.5802307128906 C -1015.204528808594 -290.0203247070313 -1008.23095703125 -287.7071838378906 -1001.655944824219 -284.7052001953125 C -995.1968383789063 -281.7561950683594 -989.1124267578125 -278.1385498046875 -983.57177734375 -273.9529113769531 C -978.056884765625 -269.7867736816406 -973.0821533203125 -265.0591125488281 -968.7855834960938 -259.9011840820313 C -967.753662109375 -259.9176635742188 -966.7276611328125 -259.9257507324219 -965.7368774414063 -259.9257507324219 C -950.382568359375 -259.9257507324219 -935.4874267578125 -258.1014099121094 -921.4653930664063 -254.50341796875 C -914.7258911132813 -252.7740631103516 -908.2257690429688 -250.6336975097656 -902.1456298828125 -248.1417388916016 C -896.1231079101563 -245.6733245849609 -890.4597778320313 -242.8385620117188 -885.3128662109375 -239.7162017822266 C -880.1659545898438 -236.5937347412109 -875.4932861328125 -233.1579742431641 -871.4246826171875 -229.5043792724609 C -867.31689453125 -225.8156433105469 -863.7886962890625 -221.8722381591797 -860.938232421875 -217.78369140625 C -858.0349731445313 -213.6195526123047 -855.8052368164063 -209.2619171142578 -854.3109130859375 -204.8316497802734 C -852.7776489257813 -200.2858734130859 -852.0001831054688 -195.6072387695313 -852.0001831054688 -190.9256439208984 C -852.0001831054688 -184.6802825927734 -853.3760375976563 -178.4895172119141 -856.0895385742188 -172.5253295898438 C -858.7203979492188 -166.7430572509766 -862.6018676757813 -161.1828765869141 -867.6261596679688 -155.9993286132813 L -867.6264038085938 -155.9990997314453 Z" stroke="none" fill="#458eaa"/>
    </g>
  </g>
</svg>
