<svg id="lock-icon" xmlns="http://www.w3.org/2000/svg" width="51.255" height="51.255" viewBox="0 0 51.255 51.255">
  <g id="Group_4" data-name="Group 4">
    <path id="Path_15" data-name="Path 15" d="M0,0H51.255V51.255H0Z" fill="none"/>
    <path id="Path_16" data-name="Path 16" d="M0,0H51.255V51.255H0Z" fill="none" opacity="0.87"/>
  </g>
  <path id="Path_17" data-name="Path 17" d="M33.226,15.853H31.138V11.609a10.439,10.439,0,1,0-20.875,0v4.244H8.175A4.222,4.222,0,0,0,4,20.1V41.316A4.222,4.222,0,0,0,8.175,45.56H33.226A4.222,4.222,0,0,0,37.4,41.316V20.1A4.222,4.222,0,0,0,33.226,15.853ZM14.438,11.609a6.263,6.263,0,1,1,12.525,0v4.244H14.438ZM33.226,41.316H8.175V20.1H33.226ZM20.7,34.95a4.244,4.244,0,1,0-4.175-4.244A4.222,4.222,0,0,0,20.7,34.95Z" transform="translate(4.927 1.232)" fill="#fff"/>
</svg>
