<svg xmlns="http://www.w3.org/2000/svg" width="123" height="29" viewBox="0 0 123 29">
  <g id="logo-bottom" transform="translate(-139 -29)">
    <g id="Group_1" data-name="Group 1" transform="translate(-23)">
      <g id="cloud2" transform="translate(285 42) rotate(180)" fill="#f8f8f8">
        <path d="M 15.13411045074463 12 C 14.45145034790039 12 13.77297973632813 11.93026924133301 13.11754989624023 11.79274940490723 C 12.48330974578857 11.6596794128418 11.867919921875 11.46266937255859 11.28845024108887 11.20718955993652 C 10.72229957580566 10.9575891494751 10.18997001647949 10.65207958221436 9.706259727478027 10.29913997650146 C 9.228830337524414 9.950799942016602 8.799209594726563 9.556589126586914 8.429300308227539 9.127449989318848 L 8.145420074462891 8.798129081726074 L 7.710969924926758 8.781129837036133 C 6.749639987945557 8.743499755859375 5.825379848480225 8.588859558105469 4.963850021362305 8.321489334106445 C 4.144050121307373 8.067069053649902 3.415849924087524 7.722049713134766 2.799499988555908 7.296009540557861 C 1.6390700340271 6.493899345397949 1 5.484489440917969 1 4.453719615936279 C 1 4.124739646911621 1.064389944076538 3.796099424362183 1.191380023956299 3.47693943977356 C 1.320600032806396 3.152239561080933 1.515329957008362 2.833979606628418 1.770140051841736 2.531049489974976 C 2.033750057220459 2.217699527740479 2.360049962997437 1.922319531440735 2.73993992805481 1.653169512748718 C 3.081668376922607 1.411054015159607 3.46445894241333 1.191807746887207 3.880045890808105 1.000019550323486 L 32.04085922241211 1.000019550323486 C 32.31790542602539 1.318088054656982 32.5376091003418 1.647713541984558 32.69609069824219 1.983569502830505 C 32.89775085449219 2.410909414291382 33 2.850509405136108 33 3.290159463882446 C 33 3.618439435958862 32.94290924072266 3.948089599609375 32.83032989501953 4.269939422607422 C 32.71628189086914 4.595939636230469 32.54336929321289 4.92039966583252 32.31639862060547 5.234279632568359 C 32.08304977416992 5.556999683380127 31.7907600402832 5.871259689331055 31.44762992858887 6.168349742889404 C 31.09649085998535 6.472379684448242 30.6903190612793 6.759969711303711 30.24040985107422 7.023139476776123 C 29.78142929077148 7.291619300842285 29.27433967590332 7.536169528961182 28.73320007324219 7.750019550323486 C 28.1805591583252 7.968409538269043 27.58834075927734 8.156339645385742 26.97299003601074 8.308579444885254 C 25.68151092529297 8.62809944152832 24.30705070495605 8.790109634399414 22.88777923583984 8.790109634399414 C 22.79594039916992 8.790109634399414 22.70083999633789 8.789379119873047 22.60519027709961 8.787919998168945 L 22.1384105682373 8.780789375305176 L 21.83321952819824 9.134039878845215 C 21.46324920654297 9.562259674072266 21.03371047973633 9.955619812011719 20.5565299987793 10.30318927764893 C 20.07299995422363 10.65536975860596 19.54108047485352 10.96017932891846 18.97554016113281 11.20913982391357 C 18.3965892791748 11.46400928497314 17.78182983398438 11.66054916381836 17.14831924438477 11.79327964782715 C 16.4936408996582 11.93044948577881 15.81595993041992 12 15.13411045074463 12 Z" stroke="none"/>
        <path d="M 4.107311248779297 2.000019073486328 C 3.821590423583984 2.142602920532227 3.557186126708984 2.299699783325195 3.318050384521484 2.46912956237793 C 3.007549285888672 2.689119338989258 2.744209289550781 2.926549911499023 2.535400390625 3.174769401550293 C 2.349649429321289 3.395589828491211 2.210060119628906 3.621679306030273 2.120529174804688 3.846639633178711 C 2.040550231933594 4.047649383544922 2 4.251899719238281 2 4.453719139099121 C 2 5.388209342956543 2.857160568237305 6.120219707489014 3.368110656738281 6.473399639129639 C 3.900880813598633 6.84166955947876 4.537490844726563 7.142129421234131 5.260250091552734 7.366429328918457 C 6.038339614868164 7.60789966583252 6.876039505004883 7.747679710388184 7.750080108642578 7.78188943862915 L 8.618989944458008 7.81589937210083 L 9.186740875244141 8.474549293518066 C 9.506809234619141 8.845869064331055 9.879909515380859 9.187949180603027 10.29567909240723 9.49131965637207 C 10.72151947021484 9.802029609680176 11.19125938415527 10.07147979736328 11.69186973571777 10.29217910766602 C 12.20783042907715 10.5196590423584 12.7565803527832 10.69524002075195 13.32288932800293 10.81405925750732 C 13.91093063354492 10.93743896484375 14.52030944824219 11 15.13410949707031 11 C 15.74719047546387 11 16.35588073730469 10.93759918212891 16.94323921203613 10.81453895568848 C 17.50890922546387 10.69600963592529 18.05710983276367 10.52084922790527 18.57263946533203 10.29388999938965 C 19.07268905639648 10.07375907897949 19.54209136962891 9.804929733276367 19.96778106689453 9.494869232177734 C 20.38335037231445 9.192179679870605 20.75638008117676 8.850830078125 21.07651138305664 8.480279922485352 L 21.68690872192383 7.773769378662109 L 22.62047004699707 7.788029670715332 C 22.7109489440918 7.789419651031494 22.80091094970703 7.790109634399414 22.88777923583984 7.790109634399414 C 24.22618103027344 7.790109634399414 25.51984977722168 7.637949466705322 26.73282051086426 7.337849617004395 C 27.30500984191895 7.196279525756836 27.85438919067383 7.022049427032471 28.36568069458008 6.819999694824219 C 28.85952949523926 6.624839305877686 29.32040023803711 6.402769565582275 29.73550987243652 6.159959316253662 C 30.13248062133789 5.927759647369385 30.48829078674316 5.676229476928711 30.79306983947754 5.412339687347412 C 31.07796096801758 5.165669441223145 31.31784057617188 4.908629417419434 31.50605964660645 4.648329734802246 C 31.67634010314941 4.412839889526367 31.8043098449707 4.174439430236816 31.88641929626465 3.939709663391113 C 31.9617805480957 3.724269866943359 32 3.505719184875488 32 3.290149688720703 C 32 2.999209403991699 31.92992973327637 2.703189849853516 31.79172897338867 2.410319328308105 C 31.7270565032959 2.273269653320313 31.64768028259277 2.136292457580566 31.5540657043457 2.000019073486328 L 4.107311248779297 2.000019073486328 M 32.47328948974609 -9.5367431640625e-07 L 32.47333145141602 1.9073486328125e-05 C 32.96419906616211 0.4883193969726563 33.34342193603516 1.012099266052246 33.60046005249023 1.556809425354004 C 33.86558151245117 2.118639945983887 34 2.70181941986084 34 3.290149688720703 C 34 3.731169700622559 33.92404174804688 4.171899795532227 33.77423095703125 4.600129127502441 C 33.62823867797852 5.01746940612793 33.4103889465332 5.427969455718994 33.12673950195313 5.820239543914795 C 32.84825134277344 6.205389499664307 32.5035400390625 6.576859474182129 32.10219955444336 6.924349308013916 C 31.70468902587891 7.268529415130615 31.2481689453125 7.592179298400879 30.74530029296875 7.886319637298584 C 30.24245071411133 8.180459976196289 29.68914031982422 8.447500228881836 29.10073089599609 8.680028915405273 C 28.50669097900391 8.914779663085938 27.87162017822266 9.116399765014648 27.21315956115723 9.279309272766113 C 25.84318923950195 9.618249893188477 24.38792037963867 9.790109634399414 22.88777923583984 9.790109634399414 C 22.79098129272461 9.790109634399414 22.69073867797852 9.789339065551758 22.58992004394531 9.787799835205078 C 22.17013931274414 10.27367973327637 21.68410110473633 10.71903991699219 21.14527893066406 11.11149978637695 C 20.60395050048828 11.5057897567749 20.00949859619141 11.84657955169678 19.37844085693359 12.12437915802002 C 18.73606109619141 12.4071798324585 18.05472946166992 12.62507915496826 17.35338973999023 12.77202987670898 C 16.63139915466309 12.92329978942871 15.88472938537598 13 15.13410949707031 13 C 14.3825798034668 13 13.63501930236816 12.92309951782227 12.91220092773438 12.77143955230713 C 12.21007919311523 12.62412929534912 11.52803039550781 12.40569972991943 10.88503074645996 12.1222095489502 C 10.25337028503418 11.84372901916504 9.65846061706543 11.50215911865234 9.116830825805664 11.10695934295654 C 8.577749252319336 10.71362972259521 8.091579437255859 10.26727962493896 7.671859741210938 9.780359268188477 C 6.623260498046875 9.739319801330566 5.612430572509766 9.569819450378418 4.667459487915039 9.276559829711914 C 3.750600814819336 8.992019653320313 2.930820465087891 8.602429389953613 2.230890274047852 8.118619918823242 C 0.7922782897949219 7.124219417572021 0 5.822669506072998 0 4.453719139099121 C 0 3.99756908416748 0.08823013305664063 3.544549942016602 0.2622299194335938 3.107239723205566 C 0.4311294555664063 2.682819366455078 0.6809806823730469 2.27238941192627 1.004871368408203 1.88733959197998 C 1.323249816894531 1.508869171142578 1.712501525878906 1.155559539794922 2.161830902099609 0.8372097015380859 C 2.610019683837891 0.5196695327758789 3.116430282592773 0.2380094528198242 3.667009353637695 1.9073486328125e-05 L 32.47332000732422 1.9073486328125e-05 L 32.47328948974609 -9.5367431640625e-07 Z" stroke="none" fill="#458eaa"/>
      </g>
      <g id="cloud1" transform="translate(240 30)" fill="#f9f9f9">
        <path d="M 33.96933746337891 12 L 4.084280014038086 12 C 3.632169246673584 11.80424785614014 3.21602463722229 11.57984924316406 2.845069885253906 11.33163928985596 C 2.439599990844727 11.0603494644165 2.091569900512695 10.76288986206055 1.810629963874817 10.44749927520752 C 1.541000008583069 10.14481925964355 1.335340023040771 9.827619552612305 1.19937002658844 9.50468921661377 C 1.067000031471252 9.190839767456055 1 8.868549346923828 1 8.546269416809082 C 1 7.526459693908691 1.677860021591187 6.522289752960205 2.908720016479492 5.718719482421875 C 3.567869901657104 5.288469314575195 4.346620082855225 4.939999580383301 5.223299980163574 4.683039665222168 C 6.14438009262085 4.413109302520752 7.132450103759766 4.256969451904297 8.160030364990234 4.218969345092773 L 8.578980445861816 4.203469753265381 L 8.861630439758301 3.893839597702026 C 9.255069732666016 3.46282958984375 9.71226978302002 3.066699504852295 10.22052955627441 2.716459512710571 C 10.73657989501953 2.36078953742981 11.30486965179443 2.052789449691772 11.90968036651611 1.800979495048523 C 12.52949047088623 1.542899489402771 13.18770027160645 1.343899488449097 13.86606025695801 1.209479570388794 C 14.56762027740479 1.070479512214661 15.29376983642578 0.9999995231628418 16.02429008483887 0.9999995231628418 C 16.75403022766113 0.9999995231628418 17.47933959960938 1.070309519767761 18.18008995056152 1.208969473838806 C 18.85762023925781 1.343019485473633 19.51514053344727 1.541529536247253 20.13438987731934 1.798989534378052 C 20.73859024047852 2.050169467926025 21.30645942687988 2.35746955871582 21.82228088378906 2.712369441986084 C 22.33015060424805 3.0616295337677 22.7872200012207 3.456869602203369 23.18099021911621 3.88724946975708 L 23.48418045043945 4.218639373779297 L 23.93330001831055 4.212109565734863 C 24.03510093688965 4.210639476776123 24.13633918762207 4.209929466247559 24.23415946960449 4.209929466247559 C 25.74614906311035 4.209929466247559 27.21047973632813 4.372949600219727 28.58646011352539 4.694449424743652 C 29.24263000488281 4.847809314727783 29.87397956848145 5.037039756774902 30.46293067932129 5.256869316101074 C 31.03989028930664 5.472189426422119 31.58073043823242 5.718519687652588 32.07046127319336 5.989029407501221 C 32.55030059814453 6.254189491271973 32.9834098815918 6.543809413909912 33.35758972167969 6.849779605865479 C 33.72272872924805 7.148369312286377 34.03353881835938 7.463929653167725 34.28134155273438 7.787639617919922 C 34.52104949951172 8.100659370422363 34.70335006713867 8.423469543457031 34.82328033447266 8.747239112854004 C 34.94050979614258 9.063959121704102 35 9.387899398803711 35 9.709839820861816 C 35 10.14161968231201 34.89316940307617 10.57446956634521 34.68246841430664 10.99633979797363 C 34.51139450073242 11.33863544464111 34.27222442626953 11.67510223388672 33.96933746337891 12 Z" stroke="none"/>
        <path d="M 33.50583648681641 11 C 33.61859512329102 10.8500804901123 33.71283340454102 10.69961929321289 33.787841796875 10.54953956604004 C 33.93059921264648 10.26368999481201 34 9.989019393920898 34 9.709839820861816 C 34 9.506769180297852 33.96144104003906 9.299619674682617 33.88555145263672 9.094609260559082 C 33.80030822753906 8.864489555358887 33.6663818359375 8.629359245300293 33.48728179931641 8.395479202270508 C 33.28646850585938 8.133159637451172 33.02983856201172 7.873549461364746 32.72459030151367 7.623919486999512 C 32.39691162109375 7.355989456176758 32.01406097412109 7.10038948059082 31.58695030212402 6.86436939239502 C 31.1401195526123 6.617559432983398 30.64431953430176 6.391929626464844 30.11325073242188 6.193729400634766 C 29.56402969360352 5.988739490509033 28.9737491607666 5.811919689178467 28.35894012451172 5.668219566345215 C 27.05743980407715 5.364119529724121 25.6696605682373 5.209929466247559 24.23415946960449 5.209929466247559 C 24.14105987548828 5.209929466247559 24.04471015930176 5.210599422454834 23.94783020019531 5.212009429931641 L 23.04958915710449 5.225059509277344 L 22.44318962097168 4.562269687652588 C 22.10057067871094 4.187789440155029 21.70108985900879 3.842669486999512 21.25544929504395 3.536209583282471 C 20.7968807220459 3.220689535140991 20.29055023193359 2.946889638900757 19.75049018859863 2.722369432449341 C 19.19230079650879 2.490299463272095 18.5986499786377 2.311169624328613 17.98596954345703 2.189949512481689 C 17.3490104675293 2.063909530639648 16.68901062011719 1.999999523162842 16.02429008483887 1.999999523162842 C 15.3588695526123 1.999999523162842 14.69810962677002 2.064069509506226 14.06042957305908 2.190399408340454 C 13.44703006744385 2.311949491500854 12.85274982452393 2.49152946472168 12.29403972625732 2.724169492721558 C 11.75345993041992 2.94922947883606 11.24678039550781 3.223649501800537 10.78794956207275 3.539889574050903 C 10.34212970733643 3.847099542617798 9.942509651184082 4.193019390106201 9.600190162658691 4.568029403686523 L 9.034890174865723 5.187299728393555 L 8.196980476379395 5.218279361724854 C 7.252089977264404 5.25322961807251 6.346199989318848 5.396019458770752 5.504570007324219 5.642659664154053 C 4.721909999847412 5.872069358825684 4.032430171966553 6.179409503936768 3.455389976501465 6.556079387664795 C 2.53046989440918 7.159909725189209 2 7.885299682617188 2 8.546269416809082 C 2 8.734349250793457 2.040560007095337 8.925899505615234 2.120990037918091 9.116619110107422 C 2.214200019836426 9.337969779968262 2.361000061035156 9.561949729919434 2.557339906692505 9.782349586486816 C 2.782049894332886 10.0346097946167 3.0659499168396 10.2762393951416 3.401170015335083 10.50052928924561 C 3.671882390975952 10.68165874481201 3.972388029098511 10.84898471832275 4.297918796539307 11 L 33.50583648681641 11 M 34.38354873657227 13 L 3.882719993591309 13 C 3.299710035324097 12.76197910308838 2.763580083847046 12.48031997680664 2.288969993591309 12.16275978088379 C 1.813179969787598 11.84441947937012 1.401049971580505 11.49111938476563 1.063920021057129 11.11264991760254 C 0.7209200263023376 10.72760963439941 0.4564499855041504 10.31717967987061 0.2777400016784668 9.892769813537598 C 0.09330999851226807 9.455449104309082 0 9.002419471740723 0 8.546269416809082 C 0 7.177309513092041 0.8388400077819824 5.875799655914307 2.362060070037842 4.881369590759277 C 3.10319995880127 4.397589683532715 3.971120119094849 4.007989406585693 4.942019939422607 3.723409414291382 C 5.94251012802124 3.430209636688232 7.012790203094482 3.260709524154663 8.123069763183594 3.21964955329895 C 8.567580223083496 2.732699632644653 9.082329750061035 2.286359548568726 9.65310001373291 1.893039464950562 C 10.2265100479126 1.497829556465149 10.85647010803223 1.156269550323486 11.52532005310059 0.8777995109558105 C 12.20617961883545 0.5942994952201843 12.92827033996582 0.3758595287799835 13.67168045043945 0.228549525141716 C 14.43706035614014 0.07690951973199844 15.22859001159668 -4.76837158203125e-07 16.02429008483887 -4.76837158203125e-07 C 16.81912040710449 -4.76837158203125e-07 17.60968971252441 0.07670952379703522 18.37420082092285 0.22798952460289 C 19.11687088012695 0.3749295175075531 19.83809089660645 0.5928195118904114 20.51828956604004 0.8756195306777954 C 21.18647956848145 1.153399467468262 21.81599044799805 1.49420952796936 22.38911056518555 1.888539552688599 C 22.95973968505859 2.280949592590332 23.47419929504395 2.726299524307251 23.91877937316895 3.212219476699829 C 24.02548980712891 3.21066951751709 24.13162040710449 3.209929466247559 24.23415946960449 3.209929466247559 C 25.82249069213867 3.209929466247559 27.36343002319336 3.381749629974365 28.81398963928223 3.720679521560669 C 29.51118087768555 3.883629560470581 30.18354988098145 4.085199356079102 30.81262016296387 4.319999694824219 C 31.43561935424805 4.552509307861328 32.02141189575195 4.81952953338623 32.55395889282227 5.113689422607422 C 33.08628082275391 5.407839298248291 33.56967926025391 5.731449604034424 33.9906005859375 6.075629711151123 C 34.41555023193359 6.423139572143555 34.78052139282227 6.794589519500732 35.07538986206055 7.179789543151855 C 35.37575912475586 7.572029590606689 35.60639953613281 7.982499599456787 35.76100921630859 8.399879455566406 C 35.91950988769531 8.828079223632813 36 9.268799781799316 36 9.709839820861816 C 36 10.29818916320801 35.85768890380859 10.88132953643799 35.57709884643555 11.44314956665039 C 35.30485916137695 11.98786926269531 34.90327835083008 12.51165962219238 34.38354873657227 13 Z" stroke="none" fill="#458eaa"/>
      </g>
    </g>
    <text id="ByteCloud" transform="translate(139 54)" fill="#308bae" font-size="20" font-family="Tahoma-Bold, Tahoma" font-weight="700"><tspan x="0" y="0">Byte</tspan><tspan y="0" fill="#fff">Cloud</tspan></text>
  </g>
</svg>
