<svg id="wallet-icon" xmlns="http://www.w3.org/2000/svg" width="51.899" height="51.899" viewBox="0 0 51.899 51.899">
  <path id="Path_13" data-name="Path 13" d="M0,0H51.9V51.9H0Z" fill="none"/>
  <path id="Path_14" data-name="Path 14" d="M39.009,11.377V6.915a3.97,3.97,0,0,0-4-3.915H7A3.957,3.957,0,0,0,3,6.915v27.4a3.957,3.957,0,0,0,4,3.915H35.008a3.97,3.97,0,0,0,4-3.915V29.854a3.9,3.9,0,0,0,2-3.367V14.744a3.9,3.9,0,0,0-2-3.367Zm-2,3.367V26.488H23V14.744ZM7,34.317V6.915H35.008v3.915H23a3.97,3.97,0,0,0-4,3.915V26.488A3.97,3.97,0,0,0,23,30.4h12v3.915Z" transform="translate(5.334 5.334)" fill="#fff"/>
  <circle id="Ellipse_8" data-name="Ellipse 8" cx="4.167" cy="4.167" r="4.167" transform="translate(30.081 21.783)" fill="#fff"/>
</svg>
